<svg width="145" height="144" xmlns="http://www.w3.org/2000/svg"><path d="M133.344 0H10.629C4.765 0 0 4.648 0 10.376v123.235C0 139.345 4.765 144 10.629 144h122.715c5.875 0 10.66-4.655 10.66-10.389V10.376c0-5.728-4.785-10.376-10.66-10.376" fill="#FFF"/><path d="M133.344 0c5.875 0 10.66 4.648 10.66 10.376v123.235c0 5.734-4.785 10.389-10.66 10.389H10.629C4.765 144 0 139.345 0 133.611V10.376C0 4.648 4.765 0 10.629 0h122.715zM32.034 19.826c-6.846 0-12.386 5.549-12.386 12.379 0 6.837 5.54 12.386 12.386 12.386 6.828 0 12.378-5.549 12.378-12.386 0-6.83-5.55-12.379-12.378-12.379zM21.35 122.707h21.359V53.985H21.35v68.722zm34.756-68.722v68.722h21.34V88.71c0-8.962 1.707-17.643 12.819-17.643 10.952 0 11.099 10.251 11.099 18.22v33.42h21.344V85.011c0-18.5-3.993-32.734-25.622-32.734-10.39 0-17.358 5.696-20.209 11.099h-.286v-9.391H56.106z" fill="#0071A1"/></svg>