<svg width="600" height="600" viewBox="0 0 600 600" xmlns="http://www.w3.org/2000/svg"><path d="M0 0h600v600H0V0zm271.894 394.225H425.19c21.648 0 44.74-3.828 59.426-11.369 12.858-6.612 22.963-16.075 30.032-28.13 12.209-20.803 9.613-42.692 9.613-53.785v-19.925c0-6.364-7.368-10.85-13.902-10.85H381.377l-13.41 21.193h134.366v8.405c0 9.797 0 28.043-9.088 43.53-10.862 18.515-32.482 29.241-64.256 29.241H308.336V226.54h106.453l13.405-21.247H169.68c-21.648 0-40.072 3.828-54.763 11.374-12.853 6.607-22.957 16.07-30.038 28.124-12.198 20.799-8.974 43.875-8.974 54.968v82.947c0 6.364 5.296 11.52 11.83 11.52h150.36l-15.27-21.695H97.722v-86.412c0-9.803-.693-17.101 8.395-32.589 10.861-18.51 28.674-26.828 60.443-26.828l119.96-.167V372.53h-29.907l15.28 21.695z" fill="#1F2325" fill-rule="evenodd"/></svg>