<svg xmlns="http://www.w3.org/2000/svg" xmlns:xlink="http://www.w3.org/1999/xlink" width="83" height="35" viewBox="208.58 223.187 83 35"><a xlink:href="/" target="_top" style="width:83px;height:35px;background-color:#fff" display="block"><path d="M244.804 258.189h28.34c4.002 0 8.271-.709 10.986-2.106 2.377-1.225 4.245-2.978 5.552-5.211 2.257-3.854 1.777-7.909 1.777-9.964v-3.691c0-1.179-1.362-2.01-2.57-2.01h-23.845l-2.479 3.926h24.84v1.557c0 1.815 0 5.195-1.68 8.064-2.008 3.43-6.005 5.417-11.879 5.417h-22.305v-27.046h19.68l2.478-3.936h-47.791c-4.002 0-7.408.709-10.124 2.107-2.376 1.224-4.244 2.977-5.553 5.21-2.255 3.853-1.659 8.128-1.659 10.183v15.366c0 1.179.979 2.134 2.187 2.134h27.797l-2.823-4.019h-23.128v-16.008c0-1.816-.128-3.168 1.552-6.037 2.008-3.429 5.301-4.97 11.174-4.97l22.177-.031v27.046h-5.529l2.825 4.019z"/></a></svg>