<svg width="320" height="200" viewBox="0 0 320 200" fill="none" xmlns="http://www.w3.org/2000/svg">
<g clip-path="url(#clip0_3_6)">
<path d="M164.852 87.4062C164.852 86.3516 164.477 85.4141 163.703 84.5938C162.93 83.7969 161.711 83.3984 160.07 83.3984C156.719 83.3984 155.242 85.0625 155.242 87.4766C155.242 90.2188 156.906 91.6953 160 91.6953C163.352 91.6953 164.852 90.1484 164.852 87.4062ZM166.609 107.164C166.609 105.992 166.211 105.055 165.438 104.375C164.664 103.695 163.234 103.344 161.172 103.344H159.602C157.703 103.344 156.391 103.742 155.617 104.562C154.844 105.383 154.469 106.414 154.469 107.703C154.469 110.352 156.602 111.875 160.047 111.875C164.43 111.875 166.609 110.305 166.609 107.164ZM170.477 80.4688V83.6328H169.094L166.938 83.4219C168.133 84.875 168.719 86.3516 168.719 87.8516C168.719 89.8906 167.969 91.6016 166.492 92.9609C164.992 94.3203 162.906 95 160.258 95H157.539C156.273 95.8203 155.641 96.6172 155.641 97.3906C155.641 98.9844 156.531 99.7344 158.992 99.7344H161.172C164.57 99.7344 167.008 100.438 168.484 101.844C169.961 103.25 170.711 105.031 170.711 107.164C170.711 109.578 169.773 111.57 167.875 113.141C165.977 114.711 163.469 115.484 160.305 115.484C157.023 115.484 154.539 114.758 152.875 113.305C151.211 111.828 150.367 110.07 150.367 107.984C150.367 105.289 151.727 103.25 154.469 101.867C152.453 101.023 151.445 99.7344 151.445 98C151.445 96.2422 152.523 94.7656 154.656 93.5469C152.477 92.0703 151.375 90.0312 151.375 87.4297C151.375 85.25 152.148 83.4922 153.695 82.1328C155.219 80.7734 157.422 80.0938 160.281 80.0938C161.102 80.0938 163.117 80.2109 166.352 80.4688H170.477ZM186.555 71.4688C186.555 72.3125 186.273 73.0391 185.688 73.625C185.102 74.2344 184.352 74.5391 183.484 74.5391C182.617 74.5391 181.891 74.2344 181.305 73.625C180.719 73.0391 180.414 72.3125 180.414 71.4688C180.414 70.625 180.719 69.8984 181.305 69.2891C181.891 68.7031 182.617 68.3984 183.484 68.3984C184.352 68.3984 185.102 68.7031 185.688 69.2891C186.273 69.8984 186.555 70.625 186.555 71.4688ZM192.695 103.602V107H175.727V103.602H182.219V83.8672H177.531V80.4688H186.227V103.602H192.695ZM215.289 101.094L218.312 103.297C216.461 106.062 213.93 107.445 210.742 107.445C208.609 107.445 206.828 106.742 205.445 105.336C204.039 103.953 203.336 101.891 203.336 99.1484V83.8672H198.883V80.4688H203.336V71.2344H207.32V80.4688H216.625V83.8672H207.32V99.4062C207.32 102.312 208.609 103.836 210.977 103.836C212.898 103.836 214.328 102.922 215.289 101.094ZM241.164 91.0859V94.4844H222.836V91.0859H241.164ZM258.438 91.1562L261.836 103.156L262.656 96.1953C263.172 91.8828 263.453 87.8984 263.477 84.2656V80.4688H267.367V83.9844C267.367 87.2188 266.922 91.2969 266.008 96.1953L263.922 107H260.172L256.703 95.0469L253.234 107H249.484L247.398 96.1953C246.484 91.2734 246.039 87.1953 246.039 83.9844V80.4688H249.93V84.2656C249.93 87.8984 250.211 91.8828 250.75 96.1953L251.57 103.156L254.969 91.1562H258.438ZM287.289 101.094L290.312 103.297C288.531 106.062 286.398 107.445 283.914 107.445C279.789 107.445 277.797 105.078 277.797 99.6172V83.8672H273.227V80.4688H277.797V71.2344H281.781V80.4688H288.508V83.8672H281.781V99.875C281.781 102.594 282.484 103.836 283.961 103.836C285.156 103.836 286.258 102.922 287.289 101.094Z" fill="black"/>
<path d="M152.422 132.719L153.516 137.266L153.828 134.398C153.961 133.203 154.023 131.984 154.023 130.734V129.156H155.32V130.328C155.32 131.398 155.172 132.75 154.867 134.398L154.211 138H152.961L152 134.016L151.039 138H149.789L149.133 134.398C148.828 132.75 148.68 131.398 148.68 130.328V129.156H149.977V130.734C149.977 131.984 150.039 133.203 150.172 134.398L150.484 137.266L151.578 132.719H152.422ZM163.023 132.969V134.172C163.023 135.523 162.742 136.523 162.188 137.172C161.633 137.82 160.898 138.148 160 138.148C159.102 138.148 158.375 137.82 157.82 137.172C157.266 136.523 156.984 135.523 156.984 134.172V132.969C156.984 131.617 157.266 130.609 157.82 129.961C158.375 129.312 159.102 128.992 160 128.992C160.898 128.992 161.633 129.312 162.188 129.961C162.742 130.609 163.023 131.617 163.023 132.969ZM161.695 134.172V132.969C161.695 131.922 161.539 131.195 161.234 130.797C160.922 130.398 160.508 130.195 160 130.195C159.492 130.195 159.078 130.398 158.773 130.797C158.469 131.195 158.312 131.922 158.312 132.969V134.172C158.312 135.219 158.469 135.945 158.773 136.344C159.078 136.742 159.492 136.945 160 136.945C160.508 136.945 160.922 136.742 161.234 136.344C161.539 135.945 161.695 135.219 161.695 134.172ZM171.469 130.648L170.312 131.164C170.055 130.516 169.602 130.195 168.953 130.195C167.625 130.195 166.961 131.406 166.961 133.828V138H165.633V129.156H166.961V130.57C167.484 129.516 168.219 128.992 169.164 128.992C170.25 128.992 171.023 129.547 171.469 130.648ZM179.336 137.688L179.359 138H178.031C178.008 137.336 177.688 136.578 177.07 135.727L175.711 133.836L174.688 135.039V138H173.359V126.078H174.688V133.406L176.719 131C177.383 130.211 177.719 129.594 177.719 129.156H179.047L179.031 129.445C179.008 129.922 178.562 130.672 177.711 131.703L176.609 133.008L178.023 135C178.859 136.203 179.297 137.102 179.336 137.688ZM186.43 136.031L187.438 136.766C186.82 137.688 185.977 138.148 184.914 138.148C184.203 138.148 183.609 137.914 183.148 137.445C182.68 136.984 182.445 136.297 182.445 135.383V130.289H180.961V129.156H182.445V126.078H183.773V129.156H186.875V130.289H183.773V135.469C183.773 136.438 184.203 136.945 184.992 136.945C185.633 136.945 186.109 136.641 186.43 136.031ZM195.469 130.648L194.312 131.164C194.055 130.516 193.602 130.195 192.953 130.195C191.625 130.195 190.961 131.406 190.961 133.828V138H189.633V129.156H190.961V130.57C191.484 129.516 192.219 128.992 193.164 128.992C194.25 128.992 195.023 129.547 195.469 130.648ZM203.016 132.812V133.844H198.305V134.109C198.305 135.25 198.477 136.008 198.812 136.383C199.148 136.758 199.609 136.945 200.203 136.945C200.961 136.945 201.555 136.578 201.984 135.844L203.062 136.531C202.383 137.609 201.406 138.148 200.117 138.148C199.188 138.148 198.438 137.828 197.852 137.18C197.266 136.531 196.977 135.508 196.977 134.109V133.039C196.977 131.641 197.266 130.609 197.852 129.961C198.438 129.312 199.148 128.992 200 128.992C200.898 128.992 201.633 129.289 202.188 129.891C202.742 130.492 203.016 131.461 203.016 132.812ZM198.305 132.672H201.688C201.688 131.773 201.523 131.133 201.203 130.758C200.883 130.383 200.477 130.195 200 130.195C199.516 130.195 199.109 130.383 198.789 130.758C198.469 131.133 198.305 131.773 198.305 132.672ZM211.016 132.812V133.844H206.305V134.109C206.305 135.25 206.477 136.008 206.812 136.383C207.148 136.758 207.609 136.945 208.203 136.945C208.961 136.945 209.555 136.578 209.984 135.844L211.062 136.531C210.383 137.609 209.406 138.148 208.117 138.148C207.188 138.148 206.438 137.828 205.852 137.18C205.266 136.531 204.977 135.508 204.977 134.109V133.039C204.977 131.641 205.266 130.609 205.852 129.961C206.438 129.312 207.148 128.992 208 128.992C208.898 128.992 209.633 129.289 210.188 129.891C210.742 130.492 211.016 131.461 211.016 132.812ZM206.305 132.672H209.688C209.688 131.773 209.523 131.133 209.203 130.758C208.883 130.383 208.477 130.195 208 130.195C207.516 130.195 207.109 130.383 206.789 130.758C206.469 131.133 206.305 131.773 206.305 132.672ZM216.031 136.969C216.609 136.969 217.039 136.836 217.328 136.57C217.617 136.312 217.758 136 217.758 135.633C217.758 135.094 217.445 134.688 216.812 134.414L215.023 133.633C213.969 133.172 213.438 132.438 213.438 131.445C213.438 130.758 213.703 130.18 214.227 129.703C214.75 129.227 215.43 128.992 216.281 128.992C217.492 128.992 218.406 129.539 219.031 130.625L217.953 131.281C217.633 130.539 217.07 130.172 216.281 130.172C215.32 130.172 214.766 130.688 214.766 131.344C214.766 131.836 215.062 132.211 215.648 132.469L217.344 133.219C218.508 133.742 219.086 134.531 219.086 135.586C219.086 136.305 218.812 136.914 218.273 137.406C217.727 137.898 216.977 138.148 216.016 138.148C214.688 138.148 213.656 137.547 212.922 136.336L214.016 135.672C214.445 136.539 215.117 136.969 216.031 136.969ZM232.031 136.969C232.609 136.969 233.039 136.836 233.328 136.57C233.617 136.312 233.758 136 233.758 135.633C233.758 135.094 233.445 134.688 232.812 134.414L231.023 133.633C229.969 133.172 229.438 132.438 229.438 131.445C229.438 130.758 229.703 130.18 230.227 129.703C230.75 129.227 231.43 128.992 232.281 128.992C233.492 128.992 234.406 129.539 235.031 130.625L233.953 131.281C233.633 130.539 233.07 130.172 232.281 130.172C231.32 130.172 230.766 130.688 230.766 131.344C230.766 131.836 231.062 132.211 231.648 132.469L233.344 133.219C234.508 133.742 235.086 134.531 235.086 135.586C235.086 136.305 234.812 136.914 234.273 137.406C233.727 137.898 232.977 138.148 232.016 138.148C230.688 138.148 229.656 137.547 228.922 136.336L230.016 135.672C230.445 136.539 231.117 136.969 232.031 136.969ZM240.461 126.156C240.461 126.438 240.367 126.68 240.172 126.875C239.977 127.078 239.727 127.18 239.438 127.18C239.148 127.18 238.906 127.078 238.711 126.875C238.516 126.68 238.414 126.438 238.414 126.156C238.414 125.875 238.516 125.633 238.711 125.43C238.906 125.234 239.148 125.133 239.438 125.133C239.727 125.133 239.977 125.234 240.172 125.43C240.367 125.633 240.461 125.875 240.461 126.156ZM242.273 136.867V138H237.242V136.867H239.016V130.289H237.844V129.156H240.352V136.867H242.273ZM251.273 131.258V138H250.023V131.32C250.023 130.562 249.781 130.188 249.305 130.188C248.891 130.188 248.531 130.477 248.227 131.062V138H246.977V131.32C246.977 130.562 246.75 130.188 246.289 130.188C245.891 130.188 245.531 130.477 245.195 131.062V138H243.945V129.156H245.195V130.031C245.633 129.336 246.148 128.992 246.742 128.992C247.344 128.992 247.773 129.336 248.023 130.023C248.461 129.336 249.023 128.992 249.719 128.992C250.758 128.992 251.273 129.75 251.273 131.258ZM259.133 132.969V134.195C259.133 135.594 258.867 136.602 258.336 137.219C257.805 137.836 257.203 138.148 256.523 138.148C255.594 138.148 254.891 137.734 254.43 136.914V140.758H253.102V129.156H254.43V130.203C254.891 129.398 255.594 128.992 256.523 128.992C257.203 128.992 257.805 129.297 258.336 129.914C258.867 130.531 259.133 131.547 259.133 132.969ZM257.766 134.195V132.969C257.766 131.93 257.625 131.211 257.336 130.805C257.047 130.398 256.672 130.195 256.195 130.195C255.297 130.195 254.703 130.805 254.43 132.016V135.117C254.703 136.336 255.289 136.945 256.195 136.945C256.672 136.945 257.047 136.742 257.336 136.328C257.625 135.922 257.766 135.211 257.766 134.195ZM266.984 136.867V138H264.156C263.398 138 263.023 137.625 263.023 136.867V127.211H260.766V126.078H264.359V136.867H266.984ZM272.852 126.156C272.852 126.438 272.758 126.68 272.562 126.875C272.367 127.078 272.117 127.18 271.828 127.18C271.539 127.18 271.297 127.078 271.102 126.875C270.906 126.68 270.805 126.438 270.805 126.156C270.805 125.875 270.906 125.633 271.102 125.43C271.297 125.234 271.539 125.133 271.828 125.133C272.117 125.133 272.367 125.234 272.562 125.43C272.758 125.633 272.852 125.875 272.852 126.156ZM274.898 136.867V138H269.242V136.867H271.406V130.289H269.844V129.156H272.742V136.867H274.898ZM283.359 126.992L282.359 127.797C282.148 127.352 281.75 127.125 281.164 127.125C280.375 127.125 279.953 127.531 279.953 128.758V129.648H283.008V130.781H279.953V138H278.617V130.781H277.133V129.648H278.617V128.836C278.617 127.828 278.852 127.094 279.32 126.617C279.789 126.148 280.375 125.914 281.078 125.914C282.148 125.914 282.906 126.273 283.359 126.992ZM288.852 126.156C288.852 126.438 288.758 126.68 288.562 126.875C288.367 127.078 288.117 127.18 287.828 127.18C287.539 127.18 287.297 127.078 287.102 126.875C286.906 126.68 286.805 126.438 286.805 126.156C286.805 125.875 286.906 125.633 287.102 125.43C287.297 125.234 287.539 125.133 287.828 125.133C288.117 125.133 288.367 125.234 288.562 125.43C288.758 125.633 288.852 125.875 288.852 126.156ZM290.898 136.867V138H285.242V136.867H287.406V130.289H285.844V129.156H288.742V136.867H290.898ZM299.016 132.812V133.844H294.305V134.109C294.305 135.25 294.477 136.008 294.812 136.383C295.148 136.758 295.609 136.945 296.203 136.945C296.961 136.945 297.555 136.578 297.984 135.844L299.062 136.531C298.383 137.609 297.406 138.148 296.117 138.148C295.188 138.148 294.438 137.828 293.852 137.18C293.266 136.531 292.977 135.508 292.977 134.109V133.039C292.977 131.641 293.266 130.609 293.852 129.961C294.438 129.312 295.148 128.992 296 128.992C296.898 128.992 297.633 129.289 298.188 129.891C298.742 130.492 299.016 131.461 299.016 132.812ZM294.305 132.672H297.688C297.688 131.773 297.523 131.133 297.203 130.758C296.883 130.383 296.477 130.195 296 130.195C295.516 130.195 295.109 130.383 294.789 130.758C294.469 131.133 294.305 131.773 294.305 132.672ZM300.867 134.188V132.969C300.867 131.555 301.117 130.539 301.625 129.922C302.133 129.305 302.75 128.992 303.477 128.992C304.406 128.992 305.109 129.406 305.57 130.227V126.078H306.898V138H305.57V136.938C305.109 137.742 304.406 138.148 303.477 138.148C302.75 138.148 302.133 137.844 301.625 137.227C301.117 136.609 300.867 135.602 300.867 134.188ZM302.234 132.969V134.188C302.234 135.211 302.367 135.93 302.625 136.336C302.883 136.742 303.281 136.945 303.805 136.945C304.703 136.945 305.297 136.359 305.57 135.188V132.039C305.297 130.812 304.711 130.195 303.805 130.195C303.281 130.195 302.883 130.398 302.625 130.805C302.367 131.219 302.234 131.938 302.234 132.969Z" fill="#656565"/>
<path d="M77 52V148" stroke="#3B82F6" stroke-width="3" stroke-linecap="round"/>
<path d="M77 72C79.2091 72 81 70.2091 81 68C81 65.7909 79.2091 64 77 64C74.7909 64 73 65.7909 73 68C73 70.2091 74.7909 72 77 72Z" fill="#3B82F6"/>
<path d="M77 96C79.2091 96 81 94.2091 81 92C81 89.7909 79.2091 88 77 88C74.7909 88 73 89.7909 73 92C73 94.2091 74.7909 96 77 96Z" fill="#3B82F6"/>
<path d="M77 120C79.2091 120 81 118.209 81 116C81 113.791 79.2091 112 77 112C74.7909 112 73 113.791 73 116C73 118.209 74.7909 120 77 120Z" fill="#3B82F6"/>
<path d="M77 144C79.2091 144 81 142.209 81 140C81 137.791 79.2091 136 77 136C74.7909 136 73 137.791 73 140C73 142.209 74.7909 144 77 144Z" fill="#3B82F6"/>
<path d="M77 68H109" stroke="#3B82F6" stroke-width="2" stroke-linecap="round"/>
<path d="M77 92H45" stroke="#3B82F6" stroke-width="2" stroke-linecap="round"/>
<path d="M77 116H109" stroke="#3B82F6" stroke-width="2" stroke-linecap="round"/>
<path d="M77 140H45" stroke="#3B82F6" stroke-width="2" stroke-linecap="round"/>
<path d="M109 72.8C111.651 72.8 113.8 70.651 113.8 68C113.8 65.349 111.651 63.2 109 63.2C106.349 63.2 104.2 65.349 104.2 68C104.2 70.651 106.349 72.8 109 72.8Z" fill="#3B82F6"/>
<path d="M45 96.8C47.651 96.8 49.8 94.651 49.8 92C49.8 89.349 47.651 87.2 45 87.2C42.349 87.2 40.2 89.349 40.2 92C40.2 94.651 42.349 96.8 45 96.8Z" fill="#3B82F6"/>
<path d="M109 120.8C111.651 120.8 113.8 118.651 113.8 116C113.8 113.349 111.651 111.2 109 111.2C106.349 111.2 104.2 113.349 104.2 116C104.2 118.651 106.349 120.8 109 120.8Z" fill="#3B82F6"/>
<path d="M45 144.8C47.651 144.8 49.8 142.651 49.8 140C49.8 137.349 47.651 135.2 45 135.2C42.349 135.2 40.2 137.349 40.2 140C40.2 142.651 42.349 144.8 45 144.8Z" fill="#3B82F6"/>
</g>
<defs>
<clipPath id="clip0_3_6">
<rect width="320" height="200" fill="white"/>
</clipPath>
</defs>
</svg>
